<?xml version="1.0"?>
<svg xmlns="http://www.w3.org/2000/svg" id="Layer_1" enable-background="new 0 0 512 512" height="512px" viewBox="0 0 512 512" width="512px" class=""><g><g><path d="m239.933 142.467h17.134v43.128c-23.34 3.146-45.869 13.661-63.77 31.562l-26.363 26.363c3.268-.253 6.56-.386 9.873-.386h95.259c36.791 0 68.302 28.473 70.89 65.363l49.609-49.61-41.73-41.73c-17.901-17.901-40.429-28.416-63.769-31.562v-43.128h17.134c52.653 0 95.333-42.603 95.333-95.333v-32.134c0-8.284-6.716-15-15-15h-32.133c-35.371 0-64.212 18.856-80.333 43.95-16.127-25.102-44.972-43.95-80.334-43.95h-32.133c-8.284 0-15 6.716-15 15v32.133c0 52.653 42.602 95.334 95.333 95.334z" data-original="#000000" class="active-path" data-old_color="#000000" fill="#FFFFFF"/><path d="m507.603 261.448c-21.184-21.184-54.831-20.341-75.299.128l-117.498 117.497c-2.813 2.813-6.628 4.393-10.607 4.393h-128.109c-8.077 0-15.027-6.207-15.406-14.275-.406-8.614 6.458-15.725 14.983-15.725l97.195.2c21.976 0 39.841-17.605 40.259-39.481.432-22.574-18.476-41.052-41.054-41.052h-95.259c-25.463 0-49.404 9.917-67.41 27.923l-105.005 105.004c-5.858 5.858-5.858 15.355 0 21.213l80.333 80.333c5.858 5.858 15.355 5.858 21.213 0l43.806-43.807h170.52c3.978 0 7.793-1.58 10.606-4.393l176.738-176.738c5.86-5.857 5.851-15.362-.006-21.22z" data-original="#000000" class="active-path" data-old_color="#000000" fill="#FFFFFF"/></g></g> </svg>
