<?xml version="1.0"?>
<svg xmlns="http://www.w3.org/2000/svg" xmlns:xlink="http://www.w3.org/1999/xlink" version="1.1" id="Capa_1" x="0px" y="0px" viewBox="0 0 512 512" style="enable-background:new 0 0 512 512;" xml:space="preserve" width="512px" height="512px"><g><g>
	<g>
		<path d="M497,0h-30c-24.508,0-46.306,11.818-60,30.052C393.306,11.818,371.508,0,347,0h-30c-8.284,0-15,6.716-15,15v30    c0,41.355,33.645,75,75,75h14.988c-0.172,44.725-2.463,83.451-31.019,108.221C360.98,227.815,361,227.41,361,227    c0-24.813-20.187-45-45-45c-4.852,0-114.474,0-120,0c-51.363,0-97.041,23.429-127.281,60H15c-8.284,0-15,6.716-15,15v180    c0,8.284,6.716,15,15,15h53.719c14.355,17.362,32.307,31.801,52.311,42.021C144.383,505.95,169.606,512,196,512    c8.529,0,77.68,0,90,0c24.813,0,45-20.187,45-45c0-5.856-1.136-11.449-3.181-16.586C346.916,445.209,361,427.723,361,407    c0-5.856-1.136-11.449-3.181-16.586C376.916,385.209,391,367.723,391,347c0-5.856-1.136-11.449-3.181-16.586    C406.916,325.209,421,307.723,421,287c0-20.576-13.887-37.958-32.777-43.299C419.314,211.029,421.8,165.469,421.986,120H437    c41.355,0,75-33.645,75-75V15C512,6.716,505.284,0,497,0z M222.495,437C215.354,444.968,211,455.483,211,467    c0,5.258,0.915,10.305,2.58,15H196c-42.866,0-82.237-19.686-108.017-54.009C85.149,424.219,80.707,422,75.989,422H30V272h45.989    c4.718,0,9.16-2.219,11.993-5.991C113.764,231.685,153.135,212,196,212c5.754,0,115.374,0,120,0c8.271,0,15,6.729,15,15    s-6.729,15-15,15h-95.121c-6.357,0-12.024,4.007-14.143,10.001C196.166,281.907,167.739,302,136,302c-8.284,0-15,6.716-15,15    s6.716,15,15,15c40.789,0,77.674-23.914,94.895-60.2h42.686c-1.665,4.695-2.58,9.942-2.58,15.2c0,5.856,1.136,11.449,3.181,16.585    C255.084,308.791,241,326.277,241,347c0,5.856,1.136,11.449,3.181,16.585C225.084,368.791,211,386.277,211,407    C211,418.517,215.354,429.032,222.495,437z M286,482h-30c-8.271,0-15-6.729-15-15s6.729-15,15-15h30c8.271,0,15,6.729,15,15    S294.271,482,286,482z M316,422c-6.359,0-53.641,0-60,0c-8.271,0-15-6.729-15-15s6.729-15,15-15c6.359,0,53.641,0,60,0    c8.271,0,15,6.729,15,15S324.271,422,316,422z M346,362c-6.359,0-53.641,0-60,0c-8.271,0-15-6.729-15-15s6.729-15,15-15    c6.359,0,53.641,0,60,0c8.271,0,15,6.729,15,15S354.271,362,346,362z M391,287c0,8.271-6.729,15-15,15c-6.359,0-53.641,0-60,0    c-8.271,0-15-6.729-15-15s6.729-15,15-15c5.392,0,49.143,0,60,0C384.271,272,391,278.729,391,287z M392,90h-15    c-24.813,0-45-20.187-45-45V30h15c24.813,0,45,20.187,45,45V90z M482,45c0,24.813-20.187,45-45,45h-15V75    c0-24.813,20.187-45,45-45h15V45z" data-original="#000000" class="active-path" data-old_color="#000000" fill="#162447"/>
	</g>
</g></g> </svg>
