<?xml version="1.0"?>
<svg xmlns="http://www.w3.org/2000/svg" id="Capa_1" enable-background="new 0 0 511.914 511.914" height="512px" viewBox="0 0 511.914 511.914" width="512px" class=""><g><g><g><g id="XMLID_211_"><g><path d="m435.744 186.563c0 80.09-52.58 147.88-125.1 170.78v66.87h-107.94v-66.87c-72.52-22.9-125.1-90.69-125.1-170.78 0-98.89 80.17-179.06 179.07-179.06s179.07 80.17 179.07 179.06z" fill="#fef48b" data-original="#FEF48B" class="" style="fill:#7B869326" data-old_color="#fef48b"/></g></g><path d="m267.66 416.433v-23.091c0-24.332-13.136-46.723-34.297-58.734-54.222-30.776-90.803-89.022-90.803-155.825 0-80.234 52.808-148.153 125.542-170.921-3.769-.237-7.599-.359-11.427-.359-98.9 0-179.07 80.17-179.07 179.06 0 80.09 52.58 147.88 125.1 170.78v66.87h107.94v-7.78z" fill="#fef056" data-original="#FEF056" class="" style="fill:#7B869326" data-old_color="#fef056"/><g fill="#a2e62e"><path d="m178.175 137.443-56.48 91.25c-1.08 1.66-1.02 3.8.16 5.39 2.52 3.38 5.58 7.48 8.9 11.94l2.331 1.492 15.154 6.048 2.766-7.54 48.64-74.18 11.88-16.64z" data-original="#A2E62E" class="" style="fill:#FCBF1E" data-old_color="#A2E62E"/><path d="m378.854 241.578c-.237 0-3.322-8.62-3.322-8.62l-11.061 6.727h-93.6-21.65v37.09l21.65-2.89h86.1c1.48 0 2.87-.69 3.76-1.87 3.99-5.29 8.62-11.48 13.29-17.72 0 0 5.07-12.717 4.833-12.717z" data-original="#A2E62E" class="" style="fill:#FCBF1E" data-old_color="#A2E62E"/><path d="m328.954 128.926-49.17-75.22c-.06-.1-.13-.19-.21-.28l-17.443 5.422-9.164 14.079 6.145 11.707-.008.012.02.01 41.48 63.43 7.91 13.5 28.94-20.37z" data-original="#A2E62E" class="" style="fill:#FCBF1E" data-old_color="#A2E62E"/></g><g><g id="XMLID_293_"><g><path d="m392.029 224.161c1.13 1.766 1.067 4.044-.167 5.735-5.366 7.332-13.087 17.866-20.723 28.252l-9.99-15.546-42.147-65.548-13.557 9.428c-1.883 1.319-4.425-.202-4.216-2.511l4.896-55.429c.157-1.724 1.81-2.884 3.452-2.405l52.566 15.44c2.197.638 2.657 3.597.774 4.905l-14.373 10.003z" fill="#bbec6c" data-original="#BBEC6C" class="" style="fill:#FCBF1E" data-old_color="#bbec6c"/></g></g><g><g id="XMLID_292_"><g><path d="m279.331 261.132c1.35 1.03 1.35 2.95 0 3.98l-43.552 33.29c-1.825 1.39-4.567.19-4.567-2v-16.18h-70.284c-1.587 0-3.088-.69-4.049-1.87-7.73-9.51-17.717-21.89-26.127-32.33h21.862 78.597v-16.18c0-2.19 2.742-3.39 4.567-2z" fill="#bbec6c" data-original="#BBEC6C" class="" style="fill:#FCBF1E" data-old_color="#bbec6c"/></g></g></g></g><g id="XMLID_291_"><g><path d="m279.586 53.439-22.051 33.469-36.141 54.856 14.467 9.552c1.961 1.297 1.519 4.288-.733 4.964l-53.905 16.306c-1.67.515-3.393-.622-3.576-2.358l-5.839-55.768c-.248-2.326 2.348-3.892 4.309-2.594l14.597 9.638 44.501-67.764c.937-1.426 2.531-2.283 4.244-2.283h36.12c1.583-.001 3.069.738 4.007 1.982z" fill="#bbec6c" data-original="#BBEC6C" class="" style="fill:#FCBF1E" data-old_color="#bbec6c"/></g></g><path d="m203.262 453.427 6.94 18.556 8.946 21.589c2.719 6.563 9.124 10.841 16.228 10.841h41.162c7.104 0 13.508-4.279 16.228-10.841l8.946-21.589 6.212-18.556z" fill="#d7d0d6" data-original="#D7D0D6" class="" style="fill:#7B869326" data-old_color="#d7d0d6"/><path d="m270.162 488.624c-7.104 0-13.508-4.279-16.228-10.841l-8.946-21.589-1.034-2.766h-40.692l6.94 18.556 8.946 21.589c2.719 6.563 9.124 10.841 16.228 10.841h41.162c7.104 0 13.508-4.279 16.228-10.841l2.051-4.949z" fill="#c9bfc8" data-original="#C9BFC8" class="" style="fill:#7B869326" data-old_color="#c9bfc8"/><g><g id="XMLID_213_"><g><path d="m309.634 433.103c5.37 0 10.23 2.18 13.75 5.69 3.51 3.52 5.69 8.38 5.69 13.75 0 10.74-8.7 19.44-19.44 19.44h-105.92c-5.37 0-10.23-2.18-13.75-5.69-3.51-3.52-5.69-8.38-5.69-13.75 0-10.74 8.7-19.44 19.44-19.44z" fill="#c9bfc8" data-original="#C9BFC8" class="" style="fill:#7B869326" data-old_color="#c9bfc8"/><path d="m323.384 399.913c3.51 3.52 5.69 8.38 5.69 13.75 0 10.73-8.7 19.44-19.44 19.44h-105.92c-5.37 0-10.23-2.18-13.75-5.7-3.51-3.52-5.69-8.38-5.69-13.74 0-10.74 8.7-19.45 19.44-19.45h105.92c5.37 0 10.23 2.18 13.75 5.7z" fill="#d7d0d6" data-original="#D7D0D6" class="" style="fill:#7B869326" data-old_color="#d7d0d6"/></g></g><g id="XMLID_294_"><g><path d="m235.523 452.543c0-10.74 8.7-19.44 19.44-19.44h-51.249c-10.74 0-19.44 8.7-19.44 19.44 0 5.37 2.18 10.23 5.69 13.75 3.52 3.51 8.38 5.69 13.75 5.69h51.249c-5.37 0-10.23-2.18-13.75-5.69-3.51-3.52-5.69-8.38-5.69-13.75z" fill="#baafb9" data-original="#BAAFB9" class="active-path" style="fill:#7B869326" data-old_color="#baafb9"/><path d="m235.523 413.663c0-10.74 8.7-19.45 19.44-19.45h-51.249c-10.74 0-19.44 8.71-19.44 19.45 0 5.36 2.18 10.22 5.69 13.74 3.52 3.52 8.38 5.7 13.75 5.7h51.249c-5.37 0-10.23-2.18-13.75-5.7-3.51-3.52-5.69-8.38-5.69-13.74z" fill="#c9bfc8" data-original="#C9BFC8" class="" style="fill:#7B869326" data-old_color="#c9bfc8"/></g></g></g></g><g><path d="m228.743 308.717c1.421.67 2.925.999 4.417.999 2.334 0 4.635-.806 6.532-2.37l21.808-17.991h90.643c3.936 0 7.697-1.875 10.063-5.017 4.292-5.699 30.648-40.969 35.901-48.025 3.142-4.219 3.316-10.012.438-14.416l-41.045-62.797 8.834-6.045c3.325-2.275 4.993-6.16 4.354-10.138s-3.441-7.144-7.313-8.262l-26.93-7.772s-52.441-80.19-52.792-80.563c-2.376-2.749-5.829-4.349-9.525-4.349h-36.338c-4.269 0-8.212 2.133-10.548 5.707l-40.655 62.202-8.398-5.573c-3.357-2.228-7.583-2.315-11.031-.228-3.447 2.087-5.329 5.873-4.911 9.881l2.982 28.598-51.858 79.34c-2.878 4.404-2.702 10.198.438 14.416 2.616 3.514 28.121 37.693 35.902 48.026 2.366 3.141 6.128 5.017 10.063 5.017h63.062v10.044c-.002 4.027 2.262 7.598 5.907 9.316zm122.202-34.363h-71.264l3.744-3.089c2.381-1.964 3.746-4.86 3.746-7.947s-1.365-5.982-3.746-7.947l-3.744-3.089h76.527l5.261 8.044c-3.688 4.928-7.288 9.73-10.524 14.028zm-115.333-111.709c3.855-1.172 6.613-4.377 7.196-8.365s-1.14-7.848-4.497-10.075l-8.343-5.537 26.005-39.66 37.282 57.01-2.551 28.356c-.362 4.014 1.572 7.773 5.049 9.812s7.702 1.892 11.028-.385l7.727-5.287 31.893 48.768h-84.901l-21.807-17.99c-3.109-2.565-7.305-3.09-10.949-1.372-3.645 1.718-5.909 5.289-5.909 9.318v10.044h-57.525l43.619-66.525zm105.314-1.485 44.146 67.542c-3.771 5.064-8.742 11.736-14.044 18.837l-48.159-73.643c-1.104-1.688-2.841-2.859-4.818-3.251-.484-.096-.973-.144-1.459-.144-1.5 0-2.979.45-4.235 1.31l-5.82 3.983 3.677-40.87 39.426 11.379-6.67 4.563c-3.368 2.304-4.277 6.878-2.044 10.294zm-62.752-96.012 36.183 55.36-5.457-1.575c-2.967-.856-6.126-.347-8.673 1.396s-4.166 4.504-4.443 7.58l-.361 4.017-30.476-46.603zm-93.591 61.405c1.665 1.105 3.701 1.498 5.659 1.097 1.957-.403 3.672-1.57 4.766-3.243l44.077-67.438h26.515l-52.266 79.711c-2.262 3.45-1.313 8.08 2.125 10.361l6.253 4.15-39.26 11.936-4.256-40.814zm-57.742 102.148 40.851-62.5.433 4.148c.32 3.069 1.979 5.809 4.55 7.515 1.711 1.136 3.687 1.721 5.687 1.721 1.006 0 2.018-.148 3.006-.448l5.158-1.568-39.153 59.714h-14.137c-2.357-3.16-4.524-6.069-6.395-8.582zm34.127 45.653c-4.985-6.624-10.839-14.441-16.54-22.071h85.905c4.142 0 7.5-3.358 7.5-7.5v-7.578l31.654 26.113-31.654 26.113v-7.578c0-4.142-3.358-7.5-7.5-7.5h-69.365z" data-original="#000000" class="" style="fill:#162447" data-old_color="#000000"/><path d="m442.525 49.778-9.326 8.661c-3.035 2.818-3.211 7.564-.393 10.599 1.479 1.591 3.485 2.396 5.498 2.396 1.826 0 3.658-.664 5.102-2.004l9.326-8.661c3.035-2.818 3.211-7.564.393-10.599-2.821-3.035-7.566-3.211-10.6-.392z" data-original="#000000" class="" style="fill:#162447" data-old_color="#000000"/><path d="m443.406 303.701c-3.036-2.819-7.781-2.643-10.6.393s-2.643 7.781.393 10.6l9.326 8.66c1.444 1.341 3.275 2.004 5.102 2.004 2.013 0 4.021-.805 5.498-2.396 2.818-3.035 2.643-7.781-.393-10.6z" data-original="#000000" class="" style="fill:#162447" data-old_color="#000000"/><path d="m479.275 179.065h-13.987c-4.143 0-7.5 3.358-7.5 7.5s3.357 7.5 7.5 7.5h13.987c4.143 0 7.5-3.358 7.5-7.5s-3.357-7.5-7.5-7.5z" data-original="#000000" class="" style="fill:#162447" data-old_color="#000000"/><path d="m68.508 69.43c1.444 1.341 3.275 2.004 5.102 2.004 2.013 0 4.021-.805 5.498-2.396 2.818-3.035 2.643-7.781-.393-10.6l-9.327-8.661c-3.037-2.818-7.781-2.643-10.6.393-2.818 3.035-2.643 7.781.393 10.6z" data-original="#000000" class="" style="fill:#162447" data-old_color="#000000"/><path d="m68.508 303.701-9.327 8.66c-3.035 2.818-3.211 7.564-.393 10.6 1.478 1.591 3.485 2.396 5.498 2.396 1.826 0 3.657-.663 5.102-2.004l9.327-8.66c3.035-2.818 3.211-7.564.393-10.6-2.818-3.034-7.563-3.211-10.6-.392z" data-original="#000000" class="" style="fill:#162447" data-old_color="#000000"/><path d="m46.626 179.065h-13.987c-4.142 0-7.5 3.358-7.5 7.5s3.358 7.5 7.5 7.5h13.987c4.142 0 7.5-3.358 7.5-7.5s-3.358-7.5-7.5-7.5z" data-original="#000000" class="" style="fill:#162447" data-old_color="#000000"/><path d="m71.013 211.197c.498 3.773 3.72 6.52 7.426 6.52.327 0 .658-.021.991-.065 4.106-.542 6.996-4.311 6.454-8.417-.991-7.506-1.493-15.133-1.493-22.668 0-94.603 76.964-171.567 171.566-171.567 40.845 0 80.418 14.604 111.43 41.121 3.148 2.692 7.883 2.321 10.574-.826 2.692-3.148 2.322-7.882-.826-10.574-33.726-28.839-76.761-44.721-121.178-44.721-102.873 0-186.566 83.693-186.566 186.565 0 8.189.546 16.477 1.622 24.632z" data-original="#000000" class="" style="fill:#162447" data-old_color="#000000"/><path d="m400.464 68.568c-2.621-3.208-7.347-3.681-10.554-1.06-3.207 2.622-3.682 7.347-1.06 10.554 24.938 30.505 38.672 69.039 38.672 108.503 0 37.209-11.711 72.603-33.867 102.354-21.425 28.77-51.96 50.53-85.982 61.272-3.12.985-5.241 3.88-5.241 7.152v29.372h-42.942c-4.142 0-7.5 3.358-7.5 7.5s3.358 7.5 7.5 7.5h49.431c6.585 0 11.941 5.357 11.941 11.942s-5.357 11.943-11.942 11.943h-105.926c-6.585 0-11.942-5.357-11.942-11.942s5.357-11.942 11.942-11.942h24.532c4.142 0 7.5-3.358 7.5-7.5s-3.358-7.5-7.5-7.5h-18.044v-29.372c0-3.272-2.122-6.167-5.242-7.152-52.163-16.471-93.667-57.283-111.024-109.172-1.314-3.928-5.565-6.048-9.492-4.734-3.928 1.314-6.048 5.563-4.734 9.492 18.289 54.677 61.235 98.044 115.491 116.977v25.348c-10.696 3.572-18.43 13.674-18.43 25.556 0 7.636 3.198 14.535 8.319 19.442-5.121 4.907-8.319 11.806-8.319 19.441 0 14.856 12.086 26.942 26.942 26.942h2.197l7.028 16.96c3.894 9.398 12.983 15.47 23.156 15.47h41.162c10.172 0 19.262-6.072 23.156-15.47l7.028-16.96h2.198c14.855 0 26.941-12.086 26.941-26.942 0-7.636-3.198-14.534-8.319-19.441 5.121-4.907 8.319-11.806 8.319-19.442 0-11.882-7.734-21.984-18.43-25.556v-25.345c35.306-12.292 65.733-34.637 88.254-64.877 24.099-32.361 36.837-70.853 36.837-111.314.002-42.917-14.934-84.822-42.056-117.999zm-114.627 422.133c-1.564 3.774-5.214 6.213-9.299 6.213h-41.162c-4.085 0-7.735-2.438-9.299-6.212l-4.648-11.218h69.057zm35.024-38.159c0 6.585-5.356 11.942-11.941 11.942h-105.926c-6.585 0-11.942-5.357-11.942-11.942 0-6.584 5.357-11.941 11.942-11.941h105.926c6.585-.001 11.941 5.356 11.941 11.941z" data-original="#000000" class="" style="fill:#162447" data-old_color="#000000"/></g></g></g> </svg>
