<?xml version="1.0"?>
<svg xmlns="http://www.w3.org/2000/svg" id="Capa_1" enable-background="new 0 0 512 512" height="512px" viewBox="0 0 512 512" width="512px" class=""><g><g><g><path clip-rule="evenodd" d="m52.203 352.407 65.233 53.985 60.104-53.985c7.339-9.012 13.914-20.319 16.323-33.949 10.967-62.175 33.24-76.797 13.999-84.194-18.249-7-40.183 10.457-40.183 36.33v-127.835c0-10.003-8.19-18.193-18.193-18.193s-18.193 8.19-18.193 18.193v-22.982c0-10.032-8.19-18.222-18.193-18.222s-18.193 8.19-18.193 18.222v13.347c0-10.003-8.19-18.193-18.193-18.193-10.032 0-18.221 8.19-18.221 18.193v41.743c0-8.36-6.801-15.189-15.161-15.189-8.331 0-15.869 6.83-15.869 15.189l.028 72.49c.257 39.22 1.532 80.424 24.712 105.05z" fill="#d19a6e" fill-rule="evenodd" data-original="#D19A6E" class="" style="fill:#FFFFFF" data-old_color="#d19a6e"/></g><g><path clip-rule="evenodd" d="m58.494 174.867c0-8.36-6.801-15.189-15.161-15.189-.255 0-.51.028-.793.028v62.458c0 10.485 15.954 10.485 15.954 0v-1.105z" fill="#c38c66" fill-rule="evenodd" data-original="#C38C66" class="active-path" style="fill:#FFFFFF" data-old_color="#c38c66"/></g><g><path clip-rule="evenodd" d="m94.908 216.383v-83.258c0-9.238-6.999-16.946-15.954-18.052v101.31c0 4.392 3.571 7.963 7.963 7.963s7.991-3.571 7.991-7.963z" fill="#c38c66" fill-rule="evenodd" data-original="#C38C66" class="active-path" style="fill:#FFFFFF" data-old_color="#c38c66"/></g><g><path clip-rule="evenodd" d="m131.294 211.82v-69.061-22.982-.113c-.057-9.21-7.028-16.861-15.954-17.967v110.123c0 4.392 3.599 7.991 7.991 7.991 4.364.001 7.963-3.598 7.963-7.991z" fill="#c38c66" fill-rule="evenodd" data-original="#C38C66" class="active-path" style="fill:#FFFFFF" data-old_color="#c38c66"/></g><g><path clip-rule="evenodd" d="m167.679 142.759c0-9.238-6.971-16.946-15.954-18.052v145.886c0 4.392 3.599 7.963 7.963 7.991 2.097-2.862 4.732-5.583 7.991-7.991z" fill="#c38c66" fill-rule="evenodd" data-original="#C38C66" class="active-path" style="fill:#FFFFFF" data-old_color="#c38c66"/></g><g><path clip-rule="evenodd" d="m207.862 234.264c-5.866-2.267-12.1-1.984-17.881.283 17.938 7.481-3.911 22.557-14.736 83.91-3.316 18.732-14.481 33.128-24.739 43.103h18.618c10.258-9.975 21.423-24.371 24.739-43.103 10.967-62.174 33.241-76.796 13.999-84.193z" fill="#c38c66" fill-rule="evenodd" data-original="#C38C66" class="active-path" style="fill:#FFFFFF" data-old_color="#c38c66"/></g><g><path clip-rule="evenodd" d="m302.085 281.76 75.435 34.431 61.606-34.431c8.02-9.862 15.217-22.246 17.824-37.123 12.015-67.984 36.357-83.995 15.331-92.072-19.95-7.651-43.923 11.449-43.923 39.731v-139.766c0-10.939-8.955-19.894-19.893-19.894s-19.893 8.955-19.893 19.894v-25.136c0-10.939-8.955-19.894-19.893-19.894-10.967 0-19.921 8.955-19.921 19.894v14.594c0-10.939-8.955-19.894-19.893-19.894s-19.893 8.955-19.893 19.894v45.625c0-9.097-7.453-16.578-16.578-16.578s-17.371 7.481-17.371 16.578l.057 79.263c.254 42.904 1.671 87.962 27.005 114.884z" fill="#ffe4c1" fill-rule="evenodd" data-original="#FFE4C1" class="" style="fill:#FFFFFF" data-old_color="#ffe4c1"/></g><g><path clip-rule="evenodd" d="m308.971 87.613c0-9.097-7.453-16.578-16.578-16.578-.283 0-.567.028-.85.028v68.296c0 11.449 17.428 11.449 17.428 0v-1.219z" fill="#f1d0a5" fill-rule="evenodd" data-original="#F1D0A5" class="" style="fill:#FFFFFF" data-old_color="#f1d0a5"/></g><g><path clip-rule="evenodd" d="m348.757 133.011v-91.023c0-10.117-7.623-18.533-17.428-19.752v110.775c0 4.818 3.911 8.728 8.728 8.728 4.79 0 8.7-3.91 8.7-8.728z" fill="#f1d0a5" fill-rule="evenodd" data-original="#F1D0A5" class="" style="fill:#FFFFFF" data-old_color="#f1d0a5"/></g><g><path clip-rule="evenodd" d="m388.572 128.052v-75.522-25.136-.114c-.057-10.06-7.68-18.42-17.456-19.639v120.41c0 4.789 3.939 8.728 8.728 8.728 4.789.001 8.728-3.938 8.728-8.727z" fill="#f1d0a5" fill-rule="evenodd" data-original="#F1D0A5" class="" style="fill:#FFFFFF" data-old_color="#f1d0a5"/></g><g><path clip-rule="evenodd" d="m428.358 52.53c0-10.117-7.651-18.533-17.456-19.752v159.517c0 4.789 3.911 8.728 8.7 8.728 2.295-3.117 5.157-6.064 8.756-8.728z" fill="#f1d0a5" fill-rule="evenodd" data-original="#F1D0A5" class="" style="fill:#FFFFFF" data-old_color="#f1d0a5"/></g><g><path clip-rule="evenodd" d="m472.281 152.565c-6.404-2.437-13.234-2.154-19.553.34 19.61 8.161-4.279 24.626-16.124 91.732-3.599 20.46-15.812 36.217-27.034 47.127h20.375c11.193-10.91 23.407-26.667 27.006-47.127 12.015-67.985 36.357-83.996 15.33-92.072z" fill="#f1d0a5" fill-rule="evenodd" data-original="#F1D0A5" class="" style="fill:#FFFFFF" data-old_color="#f1d0a5"/></g><g><path clip-rule="evenodd" d="m38.148 352.407h147.413c2.692 0 4.874 2.21 4.874 4.903v142.146c0 2.692-2.182 4.903-4.874 4.903h-147.413c-2.692 0-4.902-2.21-4.902-4.903v-142.146c-.001-2.692 2.21-4.903 4.902-4.903z" fill="#c3ddff" fill-rule="evenodd" data-original="#C3DDFF" class="" style="fill:#7B8693" data-old_color="#c3ddff"/></g><g><path clip-rule="evenodd" d="m153.312 504.358h32.248c2.692 0 4.874-2.21 4.874-4.903v-142.145c0-2.692-2.182-4.903-4.874-4.903h-8.02-18.56-.057-5.668c1.615 0 3.06.822 3.967 2.04.567.822.907 1.814.907 2.862v4.251 137.895c.001 2.665-2.153 4.875-4.817 4.903z" fill="#9dc6fb" fill-rule="evenodd" data-original="#9DC6FB" class="" style="fill:#7B8693" data-old_color="#9dc6fb"/></g><g><path clip-rule="evenodd" d="m211.943 98.07 32.418-32.164 4.421-4.364c10.91-11.307 10.91-29.784 0-41.062-9.89-10.259-25.901-7.708-36.471 1.842-1.955 1.757-2.635 2.635-3.174 2.635-.51 0-1.219-.878-3.174-2.635-10.57-9.55-26.552-12.101-36.471-1.842-10.882 11.279-10.882 29.755 0 41.062l4.421 4.364 32.447 32.164c1.389 1.105 2.097 1.7 2.777 1.729.709-.029 1.417-.624 2.806-1.729z" fill="#ff8086" fill-rule="evenodd" data-original="#FF8086" class="" style="fill:#FCBF1E" data-old_color="#ff8086"/></g><g><path clip-rule="evenodd" d="m211.943 98.07 32.418-32.164 4.421-4.364c10.91-11.307 10.91-29.784 0-41.062-1.105-1.162-2.295-2.154-3.542-2.976-5.894-3.939-13.12-4.477-19.978-2.494.623.793 1.219 1.644 1.757 2.494 7.028 11.222 5.809 26.525-3.684 36.358l-4.421 4.392-26.382 26.128 13.828 13.688c1.389 1.105 2.097 1.7 2.777 1.729.709-.029 1.417-.624 2.806-1.729z" fill="#e5646e" fill-rule="evenodd" data-original="#E5646E" class="" style="fill:#FCBF1E" data-old_color="#e5646e"/></g><g><path clip-rule="evenodd" d="m286.896 281.76h160.816c3.032 0 5.526 2.494 5.526 5.554v211.632c0 3.061-2.494 5.554-5.526 5.554h-160.816c-3.06 0-5.526-2.494-5.526-5.554v-211.632c0-3.061 2.466-5.554 5.526-5.554z" fill="#eceaed" fill-rule="evenodd" data-original="#ECEAED" class="" style="fill:#7B8693" data-old_color="#eceaed"/></g><g><path clip-rule="evenodd" d="m403.704 504.5h44.008c3.032 0 5.526-2.494 5.526-5.554v-211.632c0-3.061-2.494-5.554-5.526-5.554h-8.586-20.29-.057-15.161c3.06 0 5.554 2.494 5.554 5.554v211.632c.001 3.032-2.464 5.497-5.468 5.554z" fill="#dad8db" fill-rule="evenodd" data-original="#DAD8DB" class="" style="fill:#7B8693" data-old_color="#dad8db"/></g><g><path clip-rule="evenodd" d="m421.415 471.514 45.454-45.058 6.206-6.121c15.274-15.841 15.274-41.743 0-57.555-13.885-14.368-36.301-10.769-51.121 2.579-2.749 2.465-3.712 3.712-4.449 3.684-.737.028-1.7-1.219-4.449-3.684-14.821-13.347-37.236-16.946-51.093-2.579-15.274 15.813-15.274 41.714 0 57.555l6.178 6.121 45.454 45.058c1.955 1.559 2.947 2.409 3.911 2.437.99-.028 1.954-.878 3.909-2.437z" fill="#ff8086" fill-rule="evenodd" data-original="#FF8086" class="" style="fill:#FCBF1E" data-old_color="#ff8086"/></g><g><path clip-rule="evenodd" d="m473.075 420.335c15.274-15.841 15.274-41.743 0-57.555-5.583-5.781-12.554-8.643-19.836-9.153-4.222-.283-8.558.227-12.809 1.417.085.057.142.142.227.198 15.274 15.841 15.274 41.743 0 57.555l-43.158 42.763 16.096 15.955c1.955 1.559 2.947 2.409 3.911 2.437.992-.028 1.955-.879 3.911-2.437l45.454-45.058z" fill="#e5646e" fill-rule="evenodd" data-original="#E5646E" class="" style="fill:#FCBF1E" data-old_color="#e5646e"/></g><g><path d="m209.137 15.169c-14.507-11.731-33.508-11.826-45.041.102-13.676 14.175-13.679 37.264-.006 51.471.044.046.089.092.135.137l36.856 36.517c.193.192.397.373.61.542l.223.178c1.792 1.428 3.823 3.047 6.913 3.176.104.004.208.006.312.006.1 0 .2-.002.3-.006 3.125-.125 5.164-1.75 6.963-3.185l.213-.169c.213-.17.417-.352.611-.544l32.405-32.151 4.421-4.364c.043-.043.086-.086.128-.13 13.71-14.21 13.708-37.306.002-51.476-11.52-11.947-30.533-11.851-45.045-.104zm34.307 41.103-34.294 34.003-29.967-29.707-4.348-4.292c-8.083-8.469-8.066-22.172.05-30.584 7.153-7.4 18.761-4.393 26.065 2.207.535.481.967.889 1.322 1.225 1.488 1.406 3.526 3.333 6.866 3.333 3.37 0 5.386-1.918 6.857-3.319.354-.336.787-.75 1.345-1.251 7.298-6.593 18.906-9.604 26.052-2.192 8.139 8.413 8.155 22.113.052 30.577z" data-original="#000000" class="" style="fill:#162447" data-old_color="#000000"/><path d="m210.548 227.262c-10.016-3.842-21.288-2.244-30.925 4.382-1.563 1.075-3.047 2.252-4.443 3.521v-92.406c0-14.167-11.526-25.693-25.693-25.693-3.814 0-7.438.836-10.696 2.333-.201-14.011-11.648-25.345-25.69-25.345-10.944 0-20.313 6.887-24.008 16.559-3.673-2.028-7.893-3.183-12.377-3.183-14.183 0-25.721 11.526-25.721 25.693v20.388c-2.394-.864-4.973-1.334-7.661-1.334-12.667 0-23.369 10.391-23.369 22.691l.028 132.5c.13 20.356 6.417 31.749 12.878 38.734-4.204 1.988-7.126 6.258-7.126 11.208v57.726c0 4.142 3.358 7.5 7.5 7.5s7.5-3.358 7.5-7.5v-55.128h142.189v136.951h-142.189v-44.359c0-4.142-3.358-7.5-7.5-7.5s-7.5 3.358-7.5 7.5v46.957c0 6.839 5.563 12.403 12.402 12.403h147.413c6.823 0 12.374-5.564 12.374-12.403v-142.147c0-4.85-2.798-9.047-6.856-11.085 5.151-8.508 8.564-17.368 10.171-26.464 4.604-26.108 11.122-43.253 15.881-55.771 3.463-9.11 5.751-15.129 5.79-20.681.051-7.473-4.11-12.871-12.372-16.047zm-7.438 31.397c-4.691 12.341-11.781 30.99-16.632 58.494-1.683 9.523-5.923 18.844-12.602 27.754h-118.971c-1.228-1.095-2.595-2.083-4.002-3.099-6.652-4.8-15.762-11.374-15.91-34.489l-.028-132.452c0-4.024 3.989-7.689 8.369-7.689 4.224 0 7.661 3.449 7.661 7.689v41.374c0 4.142 3.358 7.5 7.5 7.5s7.5-3.358 7.5-7.5v-83.117c0-5.896 4.809-10.693 10.721-10.693 5.896 0 10.693 4.797 10.693 10.693v84.59c0 4.142 3.358 7.5 7.5 7.5s7.5-3.358 7.5-7.5v-97.938c0-5.912 4.797-10.722 10.693-10.722s10.693 4.81 10.693 10.722v91.618c0 4.142 3.358 7.5 7.5 7.5s7.5-3.358 7.5-7.5v-68.636c0-5.896 4.797-10.693 10.693-10.693s10.693 4.797 10.693 10.693v123.223c-16.187 8.771-30.721 23.598-34.129 35.269-1.161 3.976 1.121 8.14 5.097 9.301.702.205 1.409.303 2.105.303 3.247 0 6.24-2.125 7.196-5.4 1.925-6.592 13.855-20.377 30.391-28.06 2.609-1.212 4.34-3.924 4.34-6.802 0-11.079 4.838-21.019 12.941-26.59 5.506-3.785 11.722-4.783 17.051-2.739 1.938.745 2.578 1.309 2.724 1.457.509 2.007-2.303 9.405-4.787 15.939z" data-original="#000000" class="" style="fill:#162447" data-old_color="#000000"/><path d="m478.468 357.567c-5.003-5.177-11.109-8.593-17.729-10.292v-59.962c0-5.356-3.238-9.965-7.853-11.975 5.836-9.461 9.682-19.306 11.451-29.398 5.055-28.605 12.197-47.392 17.412-61.109 3.762-9.896 6.248-16.435 6.291-22.38.057-7.854-4.34-13.536-13.073-16.89-10.724-4.115-22.808-2.396-33.149 4.714-2.129 1.463-4.12 3.104-5.96 4.898v-102.643c0-15.105-12.289-27.394-27.393-27.394-4.458 0-8.669 1.07-12.393 2.967v-.71c0-15.104-12.289-27.393-27.393-27.393-11.967 0-22.168 7.698-25.902 18.397-4.08-2.416-8.837-3.803-13.912-3.803-15.104 0-27.393 12.289-27.393 27.394v23.323c-2.803-1.145-5.868-1.776-9.078-1.776-13.481 0-24.871 11.026-24.871 24.081l.057 144.879c.133 22.78 7.391 35.182 14.614 42.659-4.862 1.896-8.323 6.625-8.323 12.16v92.468c0 4.142 3.358 7.5 7.5 7.5s7.5-3.358 7.5-7.5v-90.522h12.526c.005 0 .01.001.016.001.005 0 .01-.001.015-.001h144.311v57.038c-9.732 1.099-19.648 5.439-28.234 12.98-19.362-16.996-45.443-17.772-60.936-1.709-18.086 18.725-18.088 49.216-.004 67.972.04.041.08.082.12.122l51.63 51.178c.192.19.394.37.605.539l.397.317c2.349 1.878 4.568 3.652 7.968 3.751.073.002.147.003.22.003.071 0 .143-.001.214-.003 3.413-.098 5.677-1.911 7.867-3.666l.504-.403c.211-.168.414-.349.606-.539l19.043-18.877v39.037h-156.869v-82.588c0-4.142-3.358-7.5-7.5-7.5s-7.5 3.358-7.5 7.5v84.534c0 7.198 5.843 13.054 13.026 13.054h160.816c7.183 0 13.026-5.856 13.026-13.054v-55.852l17.603-17.419c.045-.044.089-.089.132-.134 18.085-18.756 18.083-49.248-.005-67.974zm-43.001-83.307h-130.708c-1.369-1.248-2.911-2.37-4.507-3.522-7.395-5.338-17.523-12.649-17.673-38.29l-.057-144.835c0-4.751 4.705-9.078 9.871-9.078 5.005 0 9.078 4.072 9.078 9.078v45.285c0 4.142 3.358 7.5 7.5 7.5s7.5-3.358 7.5-7.5v-90.91c0-6.834 5.56-12.394 12.393-12.394s12.393 5.56 12.393 12.394v92.497c0 4.142 3.358 7.5 7.5 7.5s7.5-3.358 7.5-7.5v-107.091c0-6.834 5.572-12.394 12.421-12.394 6.833 0 12.393 5.56 12.393 12.394v100.176c0 4.142 3.358 7.5 7.5 7.5s7.5-3.358 7.5-7.5v-75.04c0-6.834 5.56-12.394 12.393-12.394s12.393 5.56 12.393 12.394v135.137c-17.704 9.471-33.652 25.644-37.36 38.346-1.161 3.976 1.122 8.141 5.098 9.301.702.205 1.409.302 2.105.302 3.247 0 6.24-2.126 7.196-5.4 2.142-7.338 15.346-22.642 33.617-31.118 2.612-1.211 4.344-3.924 4.344-6.804 0-12.347 5.405-23.435 14.458-29.659 6.208-4.268 13.237-5.388 19.276-3.07 3.458 1.328 3.454 1.968 3.448 2.777-.024 3.247-2.358 9.386-5.312 17.159-5.121 13.471-12.86 33.828-18.165 63.839-1.856 10.598-6.599 20.984-14.095 30.92zm32.271 140.805-50.233 49.765-50.2-49.76c-12.486-13.015-12.47-34.117.056-47.084 11.292-11.709 29.386-7.222 40.687 2.955.791.709 1.421 1.31 1.935 1.799 1.787 1.7 3.998 3.803 7.474 3.803h.097c3.476 0 5.687-2.104 7.474-3.804.514-.489 1.144-1.09 1.945-1.808 6.95-6.259 16.484-10.357 25.427-9.855.196.022.396.031.597.038 5.365.427 10.491 2.537 14.684 6.876 12.52 12.962 12.538 34.06.057 47.075z" data-original="#000000" class="" style="fill:#162447" data-old_color="#000000"/></g></g></g> </svg>
